<?xml version="1.0" encoding="utf-8"?>
<!-- Generator: Adobe Illustrator 25.4.1, SVG Export Plug-In . SVG Version: 6.00 Build 0)  -->
<svg version="1.1" id="Layer_1" xmlns="http://www.w3.org/2000/svg" xmlns:xlink="http://www.w3.org/1999/xlink" x="0px" y="0px"
	 viewBox="0 0 28.35 28.35" style="enable-background:new 0 0 28.35 28.35;" xml:space="preserve">
<style type="text/css">
	.st0{fill:#EBF7F8;stroke:#17204A;stroke-width:0.8598;stroke-miterlimit:10;}
	.st1{fill:#17204A;}
</style>
<g>
	<circle class="st0" cx="14.17" cy="14.17" r="13.14"/>
</g>
<g>
	<path class="st1" d="M22.29,11.81c-0.06,1.14-0.69,1.93-1.37,2.67c-0.85,0.92-1.85,1.6-3.13,1.78c-0.74,0.1-1.41-0.11-2.09-0.37
		c-0.82-0.32-1.65-0.66-2.5-0.84c-0.55-0.11-1.16,0.05-1.74,0.09c-0.12,0.01-0.23,0.04-0.35,0.06c-0.29,0.03-0.41-0.07-0.41-0.4
		c0.01-2.04,0.04-4.08-0.01-6.12c-0.02-0.94,0.57-1.47,1.43-1.57c2.19-0.25,3.77,0.64,4.8,2.55c0.56,1.04,1.29,1.9,2.48,2.25
		c0.8,0.24,1.6,0.21,2.4,0.02C21.96,11.91,22.1,11.86,22.29,11.81z"/>
	<path class="st1" d="M10.14,14.53c0,2.39,0,4.78,0,7.18c0,0.51-0.04,0.56-0.52,0.56c-0.51,0-0.58-0.06-0.58-0.55
		c0-4.78,0-9.57,0.01-14.35c0-0.17,0.08-0.46,0.18-0.5C9.47,6.8,9.75,6.82,9.99,6.88c0.08,0.02,0.14,0.28,0.14,0.44
		C10.15,9.72,10.14,12.13,10.14,14.53z"/>
</g>
</svg>
