<?xml version="1.0" encoding="utf-8"?>
<!-- Generator: Adobe Illustrator 25.4.1, SVG Export Plug-In . SVG Version: 6.00 Build 0)  -->
<svg version="1.1" id="Layer_1" xmlns="http://www.w3.org/2000/svg" xmlns:xlink="http://www.w3.org/1999/xlink" x="0px" y="0px"
	 viewBox="0 0 42.52 42.52" style="enable-background:new 0 0 42.52 42.52;" xml:space="preserve">
<style type="text/css">
	.st0{fill:#0D799B;stroke:#0D799B;stroke-width:0.25;stroke-miterlimit:10;}
	.st1{fill:#FFFFFF;}
</style>
<g>
	<circle class="st0" cx="21.26" cy="21.26" r="20.61"/>
	<g>
		<path class="st1" d="M26.9,30.12c0.48-0.52-2.91-6.29-3.98-7.27c-1.52-2.1-6.43-6.64-7.09-7.45c2.63,1.43,4.46,3.31,6.38,5.12
			c1.88,1.77,3.17,4.04,4.68,6.86c0.01,0.01,0.78-7.33-1.41-10.02c-0.6-0.61-1.21-1.21-1.81-1.82c-0.17-0.14-0.34-0.29-0.51-0.43
			c-1.72-1.19-5.66-2.47-5.66-2.47s-6.8-2.02-9.69-4.67c-0.01-0.01-0.03,0-0.03,0.01c0.14,4.18,0.64,7.79,1.75,11.28
			c2.57,8.11,6.64,10.78,14.96,9.87c1.48,0.31,1.04,0.62,1.44,0.99c0.97,1.77,0.48,4.2,0.09,6.31c-0.05,0.27-0.73,0.81,0.21,0.75
			c0.23-0.02,0.42-0.46,0.63-0.73C27.54,34.34,27.45,32.75,26.9,30.12z"/>
		<path class="st1" d="M27.21,31.61c0.03-0.42,0.33-0.67,0.57-0.96c0.05-0.07,0.1-0.14,0.15-0.21c0.28-0.51,0.77-0.82,1.2-1.18
			c0.2-0.13,0.4-0.25,0.6-0.38c0.92-0.73,1.99-1.21,3.03-1.74c0.28-0.2,0.55-0.4,0.94-0.67c-1.31,0.31-2.34,0.92-3.38,1.48
			c-1.03,0.55-1.87,1.36-2.98,2.2c0.39-1.64,0.65-3.04,1.93-3.96c0.33-0.19,0.67-0.39,1-0.58c0.15-0.06,0.29-0.12,0.44-0.18
			c0.84-0.28,1.69-0.42,2.57-0.33c0,0,0.02-0.02,0.02-0.02c0.05-0.04,0.11-0.04,0.17,0c1.5-0.21,3.05-0.07,4.62-0.89
			c-0.56,1.81-1.2,3.33-2.1,4.73c-2.11,3.27-4.22,3.93-7.83,2.48c-0.2,0.1-0.4,0.21-0.6,0.31c-0.44,0.87-0.71,1.78-0.79,2.75
			c-0.01,0.12,0.22,0.44-0.18,0.3c-0.1-0.03-0.13-0.25-0.19-0.39C26.37,33.34,26.38,32.36,27.21,31.61z"/>
		<path class="st1" d="M29.12,35.5c0.01,0.01,0.01,0.02,0.02,0.03c0-0.02,0-0.03,0-0.05c-0.01,0-0.01-0.01-0.02-0.01
			C29.12,35.48,29.12,35.49,29.12,35.5z"/>
	</g>
</g>
</svg>
